<?xml version="1.0" encoding="utf-8"?>
<!-- Generator: Adobe Illustrator 22.1.0, SVG Export Plug-In . SVG Version: 6.00 Build 0)  -->
<svg version="1.1" id="LOGO" xmlns="http://www.w3.org/2000/svg" xmlns:xlink="http://www.w3.org/1999/xlink" x="0px" y="0px"
	 viewBox="0 0 256 256" style="enable-background:new 0 0 256 256;" xml:space="preserve">
<style type="text/css">
	.st0{fill:url(#SVGID_1_);}
	.st1{fill:url(#SVGID_2_);}
	.st2{fill:url(#SVGID_3_);}
	.st3{fill:url(#SVGID_4_);}
	.st4{fill:url(#SVGID_5_);}
	.st5{fill:url(#SVGID_6_);}
	.st6{fill:url(#SVGID_7_);}
	.st7{fill:url(#SVGID_8_);}
	.st8{fill:url(#SVGID_9_);}
	.st9{fill:url(#SVGID_10_);}
	.st10{fill:url(#SVGID_11_);}
	.st11{fill:url(#SVGID_12_);}
	.st12{fill:url(#SVGID_13_);}
	.st13{fill:url(#SVGID_14_);}
	.st14{fill:url(#SVGID_15_);}
	.st15{fill:url(#SVGID_16_);}
	.st16{fill:url(#SVGID_17_);}
	.st17{fill:url(#SVGID_18_);}
	.st18{fill:url(#SVGID_19_);}
	.st19{fill:url(#SVGID_20_);}
	.st20{fill:url(#SVGID_21_);}
	.st21{fill:url(#SVGID_22_);}
	.st22{fill:url(#SVGID_23_);}
	.st23{fill:url(#SVGID_24_);}
	.st24{fill:url(#SVGID_25_);}
	.st25{fill:url(#SVGID_26_);}
	.st26{fill:url(#SVGID_27_);}
	.st27{fill:url(#SVGID_28_);}
	.st28{fill:url(#SVGID_29_);}
	.st29{filter:url(#Adobe_OpacityMaskFilter);}
	.st30{fill:url(#SVGID_31_);}
	.st31{opacity:0.45;mask:url(#SVGID_30_);fill:#FFFFFF;}
	.st32{fill:url(#SVGID_32_);}
</style>
<g id="Nhom_Logo">
	<g id="Number_One_Back">
		<g>
			<radialGradient id="SVGID_1_" cx="49.4649" cy="195.7746" r="55.3315" gradientUnits="userSpaceOnUse">
				<stop  offset="0" style="stop-color:#1799C4"/>
				<stop  offset="8.961654e-02" style="stop-color:#1890BD"/>
				<stop  offset="0.7029" style="stop-color:#1C5991"/>
				<stop  offset="1" style="stop-color:#1E4480"/>
			</radialGradient>
			<path class="st0" d="M51.5,243.7h23.8c10.5,0,17.2-1.1,20-3.4c2.8-2.3,4.2-8.6,4.2-19v-85.7H-0.5V256h52V243.7z"/>
			<radialGradient id="SVGID_2_" cx="59.7298" cy="60.2276" r="60.2285" gradientUnits="userSpaceOnUse">
				<stop  offset="0" style="stop-color:#1799C4"/>
				<stop  offset="8.961654e-02" style="stop-color:#1890BD"/>
				<stop  offset="0.7029" style="stop-color:#1C5991"/>
				<stop  offset="1" style="stop-color:#1E4480"/>
			</radialGradient>
			<path class="st1" d="M99.4,61.1c0-9.9-1.4-16.2-4.1-18.9c-2.7-2.7-9.4-4.1-20.1-4.1H48.4V16.9c24.2-0.8,44.5-3.4,60.7-7.9
				C113,8,116.6,6.8,120,5.5V0H-0.5v120.5h99.9V61.1z"/>
			<radialGradient id="SVGID_3_" cx="208.9736" cy="195.7746" r="54.2486" gradientUnits="userSpaceOnUse">
				<stop  offset="0" style="stop-color:#1799C4"/>
				<stop  offset="8.961654e-02" style="stop-color:#1890BD"/>
				<stop  offset="0.7029" style="stop-color:#1C5991"/>
				<stop  offset="1" style="stop-color:#1E4480"/>
			</radialGradient>
			<path class="st2" d="M161.4,221.3c0,10,1.3,16.3,4,18.7c2.7,2.5,9.3,3.7,19.8,3.7h23V256h48.2V135.5h-95.1V221.3z"/>
			<radialGradient id="SVGID_4_" cx="208.9736" cy="60.2276" r="54.2498" gradientUnits="userSpaceOnUse">
				<stop  offset="0" style="stop-color:#1799C4"/>
				<stop  offset="8.961654e-02" style="stop-color:#1890BD"/>
				<stop  offset="0.7029" style="stop-color:#1C5991"/>
				<stop  offset="1" style="stop-color:#1E4480"/>
			</radialGradient>
			<rect x="161.4" y="0" class="st3" width="95.1" height="120.5"/>
		</g>
	</g>
	<g id="VN_Circle">
		<linearGradient id="SVGID_5_" gradientUnits="userSpaceOnUse" x1="107.7663" y1="185.7077" x2="15.7542" y2="65.0505">
			<stop  offset="0" style="stop-color:#04BFFF"/>
			<stop  offset="5.945182e-02" style="stop-color:#04AEEC"/>
			<stop  offset="0.2355" style="stop-color:#0481B8"/>
			<stop  offset="0.4085" style="stop-color:#045C8C"/>
			<stop  offset="0.5747" style="stop-color:#043F6B"/>
			<stop  offset="0.7324" style="stop-color:#042A53"/>
			<stop  offset="0.878" style="stop-color:#041D44"/>
			<stop  offset="1" style="stop-color:#04193F"/>
		</linearGradient>
		<path class="st4" d="M105.9,168.9c-0.4,0.1-0.9,0.3-1.4,0.4c-0.5,0.1-1,0.2-1.6,0.3c-0.6,0.1-1.1,0.1-1.7,0.1
			c-0.9,0-1.7,0-2.5-0.1c-0.8-0.1-1.5-0.2-2.2-0.4c-0.7-0.2-1.4-0.4-2-0.7c-0.6-0.3-1.2-0.6-1.7-1c-0.5-0.4-1-0.8-1.5-1.3
			c-0.5-0.5-1-1-1.5-1.5c-0.5-0.5-1-1.1-1.4-1.8c-0.5-0.6-0.9-1.3-1.4-2L34.5,77.7l-2.4,10.5l50.2,80.3c0.4,0.7,0.9,1.3,1.3,1.9
			c0.4,0.6,0.9,1.2,1.4,1.7c0.5,0.5,0.9,1,1.4,1.5c0.5,0.4,1,0.9,1.5,1.2c0.5,0.4,1,0.7,1.6,1c0.6,0.3,1.2,0.5,1.9,0.7
			c0.7,0.2,1.4,0.3,2.2,0.4c0.8,0.1,1.6,0.1,2.4,0.1c0.6,0,1.1-0.1,1.7-0.1c0.5-0.1,1.1-0.1,1.5-0.3c0.5-0.1,0.9-0.2,1.4-0.4
			c0.4-0.1,0.8-0.3,1.2-0.5l5.5-7.2C106.8,168.6,106.3,168.8,105.9,168.9z"/>
		<linearGradient id="SVGID_6_" gradientUnits="userSpaceOnUse" x1="188.5392" y1="113.9461" x2="211.1248" y2="222.0348">
			<stop  offset="0" style="stop-color:#FFF000"/>
			<stop  offset="8.405632e-02" style="stop-color:#FFDC01"/>
			<stop  offset="0.2341" style="stop-color:#FFBE03"/>
			<stop  offset="0.3933" style="stop-color:#FFA705"/>
			<stop  offset="0.5637" style="stop-color:#FF9706"/>
			<stop  offset="0.7532" style="stop-color:#FF8D07"/>
			<stop  offset="1" style="stop-color:#FF8A07"/>
		</linearGradient>
		<path class="st5" d="M213.8,119.4c-0.2-0.9-0.4-1.7-0.6-2.6c-0.2-0.8-0.4-1.7-0.7-2.5c-0.2-0.8-0.5-1.7-0.8-2.5
			c-0.3-0.8-0.5-1.7-0.8-2.5l-8.5,8.4c0.3,0.8,0.5,1.6,0.8,2.4c0.3,0.8,0.5,1.6,0.7,2.4c0.2,0.8,0.4,1.6,0.6,2.5
			c0.2,0.8,0.4,1.7,0.6,2.5c1.4,6.5,1.8,13,1.4,19.1c-0.1,1.2-0.2,2.3-0.3,3.5c-0.6,5-1.7,9.9-3.4,14.5c-1.6,4.3-3.6,8.4-6,12.2
			c-0.8,1.3-1.7,2.5-2.6,3.7c-3.7,4.9-8.1,9.3-13.2,13c0,0,0,0,0,0c0,0,0,0,0,0l8.5-6.2c5.3-3.8,9.8-8.3,13.6-13.4
			c3.7-5,6.6-10.5,8.7-16.4c2-5.8,3.3-12,3.6-18.5C215.8,132.8,215.2,126.2,213.8,119.4z"/>
		<linearGradient id="SVGID_7_" gradientUnits="userSpaceOnUse" x1="33.4694" y1="147.5022" x2="230.6878" y2="197.5128">
			<stop  offset="0" style="stop-color:#FFF000"/>
			<stop  offset="8.405632e-02" style="stop-color:#FFDC01"/>
			<stop  offset="0.2341" style="stop-color:#FFBE03"/>
			<stop  offset="0.3933" style="stop-color:#FFA705"/>
			<stop  offset="0.5637" style="stop-color:#FF9706"/>
			<stop  offset="0.7532" style="stop-color:#FF8D07"/>
			<stop  offset="1" style="stop-color:#FF8A07"/>
		</linearGradient>
		<path class="st6" d="M192.7,197.8c-2.7,1.8-5.6,3.4-8.6,4.9c-2.7,1.3-5.4,2.4-8.3,3.4c-0.4,0.1-0.8,0.3-1.2,0.4
			c-2.9,1-6,1.8-9.1,2.4c-0.4,0.1-0.9,0.2-1.3,0.3c-3.6,0.7-7.4,1.1-11.3,1.4c-13.2,0.7-26.5-1.4-39-6
			c-12.6-4.6-24.3-11.6-34.4-20.4c-10.1-8.8-18.4-19.3-24.4-30.9c-5.9-11.4-9.5-23.8-10.2-36.5c-0.1-0.9-0.1-1.9-0.1-2.8
			c0-0.9,0-1.9,0-2.8c0-0.9,0-1.8,0.1-2.7c0-0.9,0.1-1.8,0.2-2.7l-2.9,9.6c-0.1,0.9-0.1,1.7-0.2,2.6c0,0.9-0.1,1.8-0.1,2.7
			c0,0.9,0,1.8,0,2.7c0,0.9,0,1.8,0.1,2.7c0.6,12.3,4,24.2,9.7,35.2c5.7,11.2,13.7,21.3,23.4,29.7c9.7,8.5,20.9,15.1,33,19.5
			c12,4.3,24.7,6.4,37.5,5.6c3.7-0.2,7.4-0.7,10.9-1.3c3.5-0.7,6.9-1.5,10.1-2.6c0.8-0.3,1.6-0.6,2.4-0.8c2.4-0.9,4.6-1.8,6.8-2.9
			c2.6-1.2,5-2.6,7.3-4.1c0.3-0.2,0.7-0.4,1-0.7L192.7,197.8C192.7,197.8,192.7,197.8,192.7,197.8S192.7,197.8,192.7,197.8z"/>
		<g>
			<linearGradient id="SVGID_8_" gradientUnits="userSpaceOnUse" x1="188.9711" y1="82.1373" x2="207.0831" y2="90.0018">
				<stop  offset="0" style="stop-color:#FFF000"/>
				<stop  offset="8.405632e-02" style="stop-color:#FFDC01"/>
				<stop  offset="0.2341" style="stop-color:#FFBE03"/>
				<stop  offset="0.3933" style="stop-color:#FFA705"/>
				<stop  offset="0.5637" style="stop-color:#FF9706"/>
				<stop  offset="0.7532" style="stop-color:#FF8D07"/>
				<stop  offset="1" style="stop-color:#FF8A07"/>
			</linearGradient>
			<polygon class="st7" points="202.2,79.7 194.2,88.9 185,88.5 192.7,79.3 			"/>
		</g>
		<g>
			<linearGradient id="SVGID_9_" gradientUnits="userSpaceOnUse" x1="205.7139" y1="102.7994" x2="217.6286" y2="127.5818">
				<stop  offset="0" style="stop-color:#FFF000"/>
				<stop  offset="8.405632e-02" style="stop-color:#FFDC01"/>
				<stop  offset="0.2341" style="stop-color:#FFBE03"/>
				<stop  offset="0.3933" style="stop-color:#FFA705"/>
				<stop  offset="0.5637" style="stop-color:#FF9706"/>
				<stop  offset="0.7532" style="stop-color:#FF8D07"/>
				<stop  offset="1" style="stop-color:#FF8A07"/>
			</linearGradient>
			<polygon class="st8" points="210.9,109.4 202.4,117.7 204.2,104 212.6,95.3 			"/>
		</g>
		<linearGradient id="SVGID_10_" gradientUnits="userSpaceOnUse" x1="142.7507" y1="88.6283" x2="138.229" y2="86.7178">
			<stop  offset="0" style="stop-color:#04BFFF"/>
			<stop  offset="5.945182e-02" style="stop-color:#04AEEC"/>
			<stop  offset="0.2355" style="stop-color:#0481B8"/>
			<stop  offset="0.4085" style="stop-color:#045C8C"/>
			<stop  offset="0.5747" style="stop-color:#043F6B"/>
			<stop  offset="0.7324" style="stop-color:#042A53"/>
			<stop  offset="0.878" style="stop-color:#041D44"/>
			<stop  offset="1" style="stop-color:#04193F"/>
		</linearGradient>
		<path class="st9" d="M144.7,80.9c-0.3,0.1-0.5,0.2-0.8,0.3c-0.2,0.1-0.5,0.3-0.7,0.4c-0.2,0.2-0.4,0.3-0.6,0.5
			c-0.2,0.2-0.4,0.4-0.6,0.6c-0.2,0.2-0.4,0.4-0.5,0.6c-0.2,0.2-0.4,0.4-0.5,0.7c-0.2,0.2-0.3,0.5-0.5,0.7c-2.1,3.2-4.1,6.3-6.2,9.5
			c0.2-0.2,0.3-0.5,0.5-0.7c0.2-0.2,0.3-0.4,0.5-0.7c0.2-0.2,0.3-0.4,0.5-0.6c0.2-0.2,0.4-0.4,0.6-0.5c0.2-0.2,0.4-0.3,0.6-0.5
			c0.2-0.1,0.4-0.3,0.7-0.4c0.2-0.1,0.5-0.2,0.7-0.3c0.3-0.1,0.5-0.2,0.8-0.3l6.3-9.6C145.3,80.8,145,80.8,144.7,80.9z"/>
		<g>
			<linearGradient id="SVGID_11_" gradientUnits="userSpaceOnUse" x1="190.0776" y1="79.2229" x2="184.69" y2="128.7459">
				<stop  offset="0" style="stop-color:#04BFFF"/>
				<stop  offset="5.945182e-02" style="stop-color:#04AEEC"/>
				<stop  offset="0.2355" style="stop-color:#0481B8"/>
				<stop  offset="0.4085" style="stop-color:#045C8C"/>
				<stop  offset="0.5747" style="stop-color:#043F6B"/>
				<stop  offset="0.7324" style="stop-color:#042A53"/>
				<stop  offset="0.878" style="stop-color:#041D44"/>
				<stop  offset="1" style="stop-color:#04193F"/>
			</linearGradient>
			<polygon class="st10" points="187.6,126.1 179.6,134.1 186.2,93.6 194,84.5 			"/>
		</g>
		<g>
			<linearGradient id="SVGID_12_" gradientUnits="userSpaceOnUse" x1="210.2035" y1="180.7144" x2="123.1768" y2="86.4356">
				<stop  offset="0" style="stop-color:#04BFFF"/>
				<stop  offset="5.945182e-02" style="stop-color:#04AEEC"/>
				<stop  offset="0.2355" style="stop-color:#0481B8"/>
				<stop  offset="0.4085" style="stop-color:#045C8C"/>
				<stop  offset="0.5747" style="stop-color:#043F6B"/>
				<stop  offset="0.7324" style="stop-color:#042A53"/>
				<stop  offset="0.878" style="stop-color:#041D44"/>
				<stop  offset="1" style="stop-color:#04193F"/>
			</linearGradient>
			<polygon class="st11" points="198,167.2 189.4,174 146.8,112.4 153.5,103.5 			"/>
		</g>
		<linearGradient id="SVGID_13_" gradientUnits="userSpaceOnUse" x1="62.1988" y1="61.5868" x2="303.3774" y2="89.8185">
			<stop  offset="0" style="stop-color:#FFF000"/>
			<stop  offset="8.405632e-02" style="stop-color:#FFDC01"/>
			<stop  offset="0.2341" style="stop-color:#FFBE03"/>
			<stop  offset="0.3933" style="stop-color:#FFA705"/>
			<stop  offset="0.5637" style="stop-color:#FF9706"/>
			<stop  offset="0.7532" style="stop-color:#FF8D07"/>
			<stop  offset="1" style="stop-color:#FF8A07"/>
		</linearGradient>
		<path class="st12" d="M179.4,67.1c-4.8-3.7-9.9-6.9-15.3-9.7c-5.4-2.7-11.1-5-17-6.7c-5.9-1.7-12-2.8-18.3-3.2
			c-6.3-0.4-12.4-0.2-18.2,0.8c-5.9,0.9-11.4,2.5-16.6,4.7c-5.3,2.2-10.1,5.1-14.6,8.5c-4.5,3.4-8.5,7.5-11.8,12L64,83.8
			c3.3-4.4,7.1-8.3,11.5-11.7c4.3-3.3,9-6.1,14.1-8.4c5-2.2,10.4-3.8,16.1-4.7c5.6-0.9,11.5-1.3,17.6-0.9c6.1,0.4,12,1.4,17.7,3
			c5.7,1.6,11.2,3.7,16.4,6.4c5.2,2.6,10.2,5.8,14.8,9.3c4.6,3.5,8.9,7.5,12.8,11.8l7.7-9.3C188.7,74.8,184.2,70.7,179.4,67.1z"/>
		<g>
			<linearGradient id="SVGID_14_" gradientUnits="userSpaceOnUse" x1="52.1723" y1="76.1332" x2="87.1995" y2="85.9027">
				<stop  offset="0" style="stop-color:#FFF000"/>
				<stop  offset="8.405632e-02" style="stop-color:#FFDC01"/>
				<stop  offset="0.2341" style="stop-color:#FFBE03"/>
				<stop  offset="0.3933" style="stop-color:#FFA705"/>
				<stop  offset="0.5637" style="stop-color:#FF9706"/>
				<stop  offset="0.7532" style="stop-color:#FF8D07"/>
				<stop  offset="1" style="stop-color:#FF8A07"/>
			</linearGradient>
			<polygon class="st13" points="67.6,73.4 64,83.8 52.8,83.3 56,72.9 			"/>
		</g>
		<g>
			<linearGradient id="SVGID_15_" gradientUnits="userSpaceOnUse" x1="223.6714" y1="18.0835" x2="-78.7379" y2="189.7209">
				<stop  offset="0" style="stop-color:#FFF000"/>
				<stop  offset="8.405632e-02" style="stop-color:#FFDC01"/>
				<stop  offset="0.2341" style="stop-color:#FFBE03"/>
				<stop  offset="0.3933" style="stop-color:#FFA705"/>
				<stop  offset="0.5637" style="stop-color:#FF9706"/>
				<stop  offset="0.7532" style="stop-color:#FF8D07"/>
				<stop  offset="1" style="stop-color:#FF8A07"/>
			</linearGradient>
			<path class="st14" d="M128.9,47.5c-6.3-0.4-12.4-0.2-18.2,0.8c-5.9,0.9-11.4,2.5-16.6,4.7c-5.3,2.2-10.1,5.1-14.6,8.5
				c-4.5,3.4-8.5,7.5-11.8,12L56,72.9c3.7-5.7,8.2-10.9,13.4-15.2c5.1-4.3,10.8-7.9,17-10.7c6.1-2.8,12.7-4.8,19.7-6
				c6.9-1.2,14.1-1.5,21.6-0.9c7.4,0.6,14.7,2,21.7,4.1c6.9,2.1,13.6,4.9,19.9,8.4c6.3,3.4,12.3,7.5,17.7,12.1
				c5.5,4.6,10.6,9.7,15,15.2l-9.5-0.5c-4-4.5-8.5-8.6-13.3-12.2c-4.8-3.7-9.9-6.9-15.3-9.7c-5.4-2.7-11.1-5-17-6.7
				C141.3,49,135.1,47.9,128.9,47.5z"/>
		</g>
		<g>
			<linearGradient id="SVGID_16_" gradientUnits="userSpaceOnUse" x1="98.3947" y1="100.3949" x2="49.4981" y2="99.5267">
				<stop  offset="0" style="stop-color:#04BFFF"/>
				<stop  offset="5.945182e-02" style="stop-color:#04AEEC"/>
				<stop  offset="0.2355" style="stop-color:#0481B8"/>
				<stop  offset="0.4085" style="stop-color:#045C8C"/>
				<stop  offset="0.5747" style="stop-color:#043F6B"/>
				<stop  offset="0.7324" style="stop-color:#042A53"/>
				<stop  offset="0.878" style="stop-color:#041D44"/>
				<stop  offset="1" style="stop-color:#04193F"/>
			</linearGradient>
			<polygon class="st15" points="91.1,95.6 86.5,105.2 62.6,104.6 66.3,94.8 			"/>
		</g>
		<g>
			<linearGradient id="SVGID_17_" gradientUnits="userSpaceOnUse" x1="94.5704" y1="151.3177" x2="142.3094" y2="49.1852">
				<stop  offset="0" style="stop-color:#04BFFF"/>
				<stop  offset="5.945182e-02" style="stop-color:#04AEEC"/>
				<stop  offset="0.2355" style="stop-color:#0481B8"/>
				<stop  offset="0.4085" style="stop-color:#045C8C"/>
				<stop  offset="0.5747" style="stop-color:#043F6B"/>
				<stop  offset="0.7324" style="stop-color:#042A53"/>
				<stop  offset="0.878" style="stop-color:#041D44"/>
				<stop  offset="1" style="stop-color:#04193F"/>
			</linearGradient>
			<polygon class="st16" points="99,146.4 93.9,154.4 124.5,82.7 130.2,72.9 			"/>
		</g>
		<g>
			<linearGradient id="SVGID_18_" gradientUnits="userSpaceOnUse" x1="162.4604" y1="50.3074" x2="154.2866" y2="231.7626">
				<stop  offset="0" style="stop-color:#04BFFF"/>
				<stop  offset="5.945182e-02" style="stop-color:#04AEEC"/>
				<stop  offset="0.2355" style="stop-color:#0481B8"/>
				<stop  offset="0.4085" style="stop-color:#045C8C"/>
				<stop  offset="0.5747" style="stop-color:#043F6B"/>
				<stop  offset="0.7324" style="stop-color:#042A53"/>
				<stop  offset="0.878" style="stop-color:#041D44"/>
				<stop  offset="1" style="stop-color:#04193F"/>
			</linearGradient>
			<path class="st17" d="M194,84.5l14.6,0.6L198,167.2l-44.5-63.7l-23.4,65.3l-20.7,0.5l31.3-79.9c0.2-0.6,0.5-1.1,0.7-1.6
				c0.3-0.5,0.5-1,0.8-1.4c0.3-0.4,0.6-0.9,0.9-1.2c0.3-0.4,0.7-0.7,1-1c0.3-0.3,0.7-0.6,1.2-0.8c0.4-0.2,0.9-0.4,1.5-0.5
				c0.5-0.1,1.1-0.2,1.8-0.3c0.6-0.1,1.3-0.1,2.1,0c0.7,0,1.4,0.1,2.1,0.2c0.7,0.1,1.3,0.3,1.9,0.4c0.6,0.2,1.1,0.4,1.6,0.7
				c0.5,0.3,1,0.6,1.4,0.9c0.4,0.3,0.9,0.7,1.3,1.1c0.4,0.4,0.9,0.8,1.3,1.3c0.4,0.5,0.8,1,1.3,1.5c0.4,0.5,0.8,1.1,1.2,1.7
				l24.9,35.9L194,84.5z"/>
		</g>
		<linearGradient id="SVGID_19_" gradientUnits="userSpaceOnUse" x1="104.7668" y1="181.732" x2="158.5274" y2="33.1641">
			<stop  offset="0" style="stop-color:#04BFFF"/>
			<stop  offset="5.945182e-02" style="stop-color:#04AEEC"/>
			<stop  offset="0.2355" style="stop-color:#0481B8"/>
			<stop  offset="0.4085" style="stop-color:#045C8C"/>
			<stop  offset="0.5747" style="stop-color:#043F6B"/>
			<stop  offset="0.7324" style="stop-color:#042A53"/>
			<stop  offset="0.878" style="stop-color:#041D44"/>
			<stop  offset="1" style="stop-color:#04193F"/>
		</linearGradient>
		<path class="st18" d="M136.1,95.6c-0.2,0.2-0.3,0.5-0.4,0.7c-0.1,0.2-0.3,0.5-0.4,0.8c-0.1,0.3-0.3,0.5-0.4,0.8
			c-0.1,0.3-0.3,0.6-0.4,0.9l-30.7,77.7l5.6-7.2l31.3-79.9c0.1-0.3,0.2-0.6,0.4-0.9c0.1-0.3,0.3-0.6,0.4-0.8
			c0.1-0.3,0.3-0.5,0.4-0.8c0.1-0.3,0.3-0.5,0.4-0.7C140.2,89.3,138.1,92.4,136.1,95.6z"/>
		
			<radialGradient id="SVGID_20_" cx="68.9259" cy="68.7785" r="188.7683" gradientTransform="matrix(0.8324 0 0 0.8324 7.128 70.435)" gradientUnits="userSpaceOnUse">
			<stop  offset="5.494510e-03" style="stop-color:#FFFFFF"/>
			<stop  offset="0.1648" style="stop-color:#04BFFF"/>
			<stop  offset="0.204" style="stop-color:#04AEEC"/>
			<stop  offset="0.3201" style="stop-color:#0481B8"/>
			<stop  offset="0.4342" style="stop-color:#045C8C"/>
			<stop  offset="0.5438" style="stop-color:#043F6B"/>
			<stop  offset="0.6477" style="stop-color:#042A53"/>
			<stop  offset="0.7437" style="stop-color:#041D44"/>
			<stop  offset="0.8242" style="stop-color:#04193F"/>
		</radialGradient>
		<path class="st19" d="M97.8,169.6c0.8,0.1,1.6,0.1,2.4,0.1c-0.6,0-1.1,0-1.6-0.1c-0.8-0.1-1.5-0.2-2.2-0.4c-0.7-0.2-1.4-0.4-2-0.7
			c-0.6-0.3-1.2-0.6-1.7-1c-0.5-0.4-1-0.8-1.5-1.3c-0.5-0.5-1-1-1.5-1.5c-0.5-0.6-1-1.1-1.4-1.8c-0.5-0.6-0.9-1.3-1.4-2L34.5,77.7
			l-0.2,0.9l51.9,82.3c0.4,0.7,0.9,1.4,1.4,2c0.5,0.6,0.9,1.2,1.4,1.8c0.5,0.5,1,1.1,1.5,1.5c0.5,0.5,1,0.9,1.5,1.3
			c0.5,0.4,1.1,0.7,1.7,1c0.6,0.3,1.3,0.5,2,0.7C96.2,169.4,97,169.5,97.8,169.6z"/>
		
			<radialGradient id="SVGID_21_" cx="250.2589" cy="79.8999" r="93.0703" gradientTransform="matrix(0.8324 0 0 0.8324 7.128 70.435)" gradientUnits="userSpaceOnUse">
			<stop  offset="1.098900e-02" style="stop-color:#FFFFFF"/>
			<stop  offset="0.2253" style="stop-color:#FFF000"/>
			<stop  offset="0.2701" style="stop-color:#FFDC01"/>
			<stop  offset="0.35" style="stop-color:#FFBE03"/>
			<stop  offset="0.4349" style="stop-color:#FFA705"/>
			<stop  offset="0.5257" style="stop-color:#FF9706"/>
			<stop  offset="0.6267" style="stop-color:#FF8D07"/>
			<stop  offset="0.7582" style="stop-color:#FF8A07"/>
		</radialGradient>
		<path class="st20" d="M213.7,119.4c-0.2-0.9-0.4-1.7-0.6-2.6c-0.2-0.9-0.4-1.7-0.7-2.5c-0.2-0.8-0.5-1.7-0.8-2.5
			c-0.3-0.8-0.5-1.6-0.8-2.5l-0.8,0.7c0.2,0.6,0.4,1.2,0.6,1.8c0.3,0.8,0.5,1.7,0.8,2.5c0.2,0.9,0.5,1.7,0.7,2.6
			c0.2,0.9,0.4,1.7,0.6,2.6c1.5,6.9,2.1,13.6,1.7,20.1c-0.3,6.6-1.6,12.9-3.7,18.8c-2.1,6-5.1,11.7-8.9,16.7
			c-1.1,1.6-2.4,3.1-3.7,4.5c1.7-1.8,3.3-3.7,4.8-5.8c3.7-5,6.6-10.5,8.7-16.4c2-5.8,3.3-12,3.6-18.5
			C215.8,132.8,215.2,126.2,213.7,119.4z"/>
		
			<radialGradient id="SVGID_22_" cx="97.151" cy="144.0392" r="174.9806" gradientTransform="matrix(0.8324 0 0 0.8324 7.128 70.435)" gradientUnits="userSpaceOnUse">
			<stop  offset="1.098900e-02" style="stop-color:#FFFFFF"/>
			<stop  offset="0.2253" style="stop-color:#FFF000"/>
			<stop  offset="0.2701" style="stop-color:#FFDC01"/>
			<stop  offset="0.35" style="stop-color:#FFBE03"/>
			<stop  offset="0.4349" style="stop-color:#FFA705"/>
			<stop  offset="0.5257" style="stop-color:#FF9706"/>
			<stop  offset="0.6267" style="stop-color:#FF8D07"/>
			<stop  offset="0.7582" style="stop-color:#FF8A07"/>
		</radialGradient>
		<path class="st21" d="M44.8,108.5c0-0.9,0.1-1.8,0.2-2.7l-1.1,3.6c0,0,0,0,0,0.1c0,0.9-0.1,1.8-0.1,2.7c0,0.9,0,1.9,0,2.8
			c0,0.9,0.1,1.9,0.1,2.8c0.7,12.7,4.3,25,10.2,36.5c6,11.6,14.4,22.1,24.4,30.9c10.1,8.8,21.8,15.8,34.4,20.4
			c12.5,4.5,25.7,6.7,39,6c3.9-0.2,7.6-0.7,11.3-1.4c0.5-0.1,0.9-0.2,1.3-0.3c3.1-0.6,6.2-1.4,9.1-2.4c0.4-0.1,0.8-0.3,1.2-0.4
			c2.9-1,5.6-2.2,8.3-3.4c1.2-0.6,2.3-1.2,3.5-1.8l6-4c0,0,0,0,0,0l0,0c-2.7,1.8-5.6,3.5-8.6,4.9c-2.7,1.3-5.4,2.4-8.3,3.4
			c-0.4,0.1-0.8,0.3-1.2,0.4c-2.9,1-6,1.8-9.1,2.4c-0.4,0.1-0.9,0.2-1.3,0.3c-3.6,0.7-7.4,1.1-11.3,1.4c-13.2,0.7-26.5-1.4-39-6
			c-12.6-4.6-24.3-11.6-34.4-20.4c-10.1-8.8-18.4-19.3-24.4-30.9c-5.9-11.4-9.5-23.8-10.2-36.5c-0.1-1-0.1-1.9-0.1-2.8
			c0-0.9,0-1.9,0-2.8C44.7,110.3,44.7,109.4,44.8,108.5z"/>
		
			<radialGradient id="SVGID_23_" cx="201.7885" cy="78.8103" r="81.523" gradientTransform="matrix(0.8324 0 0 0.8324 7.128 70.435)" gradientUnits="userSpaceOnUse">
			<stop  offset="5.494510e-03" style="stop-color:#FFFFFF"/>
			<stop  offset="0.1648" style="stop-color:#04BFFF"/>
			<stop  offset="0.204" style="stop-color:#04AEEC"/>
			<stop  offset="0.3201" style="stop-color:#0481B8"/>
			<stop  offset="0.4342" style="stop-color:#045C8C"/>
			<stop  offset="0.5438" style="stop-color:#043F6B"/>
			<stop  offset="0.6477" style="stop-color:#042A53"/>
			<stop  offset="0.7437" style="stop-color:#041D44"/>
			<stop  offset="0.8242" style="stop-color:#04193F"/>
		</radialGradient>
		<polygon class="st22" points="197.6,167.6 198,167.2 153.5,103.5 153.1,104 		"/>
		
			<radialGradient id="SVGID_24_" cx="155.8169" cy="-27.1127" r="125.1305" gradientTransform="matrix(0.8324 0 0 0.8324 7.128 70.435)" gradientUnits="userSpaceOnUse">
			<stop  offset="1.098900e-02" style="stop-color:#FFFFFF"/>
			<stop  offset="0.2253" style="stop-color:#FFF000"/>
			<stop  offset="0.2701" style="stop-color:#FFDC01"/>
			<stop  offset="0.35" style="stop-color:#FFBE03"/>
			<stop  offset="0.4349" style="stop-color:#FFA705"/>
			<stop  offset="0.5257" style="stop-color:#FF9706"/>
			<stop  offset="0.6267" style="stop-color:#FF8D07"/>
			<stop  offset="0.7582" style="stop-color:#FF8A07"/>
		</radialGradient>
		<path class="st23" d="M179.4,67.1c-4.8-3.7-9.9-6.9-15.3-9.7c-5.4-2.7-11.1-5-17-6.7c-5.9-1.7-12-2.8-18.3-3.2
			c-6.3-0.4-12.4-0.2-18.2,0.8c-5.9,0.9-11.4,2.5-16.6,4.7c-5.3,2.2-10.2,5.1-14.6,8.5c-2.6,2-5.1,4.3-7.4,6.7
			c1.9-1.9,4-3.7,6.1-5.3c4.5-3.4,9.4-6.3,14.7-8.6c5.3-2.2,10.9-3.8,16.8-4.8c5.9-0.9,12-1.2,18.4-0.8c6.3,0.4,12.5,1.5,18.5,3.3
			c5.9,1.7,11.7,4,17.2,6.8c5.5,2.8,10.6,6.1,15.5,9.8c4.6,3.5,8.9,7.4,12.7,11.6l0.7-0.8C188.6,74.9,184.2,70.7,179.4,67.1z"/>
		
			<radialGradient id="SVGID_25_" cx="86.5985" cy="30.7077" r="52.1118" gradientTransform="matrix(0.8324 0 0 0.8324 7.128 70.435)" gradientUnits="userSpaceOnUse">
			<stop  offset="5.494510e-03" style="stop-color:#FFFFFF"/>
			<stop  offset="0.1648" style="stop-color:#04BFFF"/>
			<stop  offset="0.204" style="stop-color:#04AEEC"/>
			<stop  offset="0.3201" style="stop-color:#0481B8"/>
			<stop  offset="0.4342" style="stop-color:#045C8C"/>
			<stop  offset="0.5438" style="stop-color:#043F6B"/>
			<stop  offset="0.6477" style="stop-color:#042A53"/>
			<stop  offset="0.7437" style="stop-color:#041D44"/>
			<stop  offset="0.8242" style="stop-color:#04193F"/>
		</radialGradient>
		<polygon class="st24" points="90.7,96.4 91,95.6 66.2,94.8 66,95.6 		"/>
		
			<radialGradient id="SVGID_26_" cx="143.543" cy="65.7216" r="150.1123" gradientTransform="matrix(0.8324 0 0 0.8324 7.128 70.435)" gradientUnits="userSpaceOnUse">
			<stop  offset="5.494510e-03" style="stop-color:#FFFFFF"/>
			<stop  offset="0.1648" style="stop-color:#04BFFF"/>
			<stop  offset="0.204" style="stop-color:#04AEEC"/>
			<stop  offset="0.3201" style="stop-color:#0481B8"/>
			<stop  offset="0.4342" style="stop-color:#045C8C"/>
			<stop  offset="0.5438" style="stop-color:#043F6B"/>
			<stop  offset="0.6477" style="stop-color:#042A53"/>
			<stop  offset="0.7437" style="stop-color:#041D44"/>
			<stop  offset="0.8242" style="stop-color:#04193F"/>
		</radialGradient>
		<path class="st25" d="M140,89.6l-31.8,81.1l1.1-1.5l31.3-79.9c0.1-0.3,0.2-0.6,0.4-0.9c0.1-0.3,0.3-0.6,0.4-0.8
			c0.1-0.3,0.3-0.5,0.4-0.8c0.1-0.3,0.3-0.5,0.4-0.7C141.5,87.3,140.7,88.4,140,89.6z"/>
		<g>
			<linearGradient id="SVGID_27_" gradientUnits="userSpaceOnUse" x1="132.8846" y1="173.1506" x2="79.6407" y2="171.286">
				<stop  offset="0" style="stop-color:#04BFFF"/>
				<stop  offset="5.945182e-02" style="stop-color:#04AEEC"/>
				<stop  offset="0.2355" style="stop-color:#0481B8"/>
				<stop  offset="0.4085" style="stop-color:#045C8C"/>
				<stop  offset="0.5747" style="stop-color:#043F6B"/>
				<stop  offset="0.7324" style="stop-color:#042A53"/>
				<stop  offset="0.878" style="stop-color:#041D44"/>
				<stop  offset="1" style="stop-color:#04193F"/>
			</linearGradient>
			<polygon class="st26" points="130.1,168.8 123.7,175.8 103.8,176.4 109.4,169.3 			"/>
		</g>
		<g>
			<linearGradient id="SVGID_28_" gradientUnits="userSpaceOnUse" x1="92.7119" y1="47.1687" x2="84.5385" y2="228.6146">
				<stop  offset="0" style="stop-color:#04BFFF"/>
				<stop  offset="5.945182e-02" style="stop-color:#04AEEC"/>
				<stop  offset="0.2355" style="stop-color:#0481B8"/>
				<stop  offset="0.4085" style="stop-color:#045C8C"/>
				<stop  offset="0.5747" style="stop-color:#043F6B"/>
				<stop  offset="0.7324" style="stop-color:#042A53"/>
				<stop  offset="0.878" style="stop-color:#041D44"/>
				<stop  offset="1" style="stop-color:#04193F"/>
			</linearGradient>
			<path class="st27" d="M142.7,82.2c-0.4,0.3-0.8,0.7-1.1,1.1c-0.4,0.4-0.7,0.9-1,1.4c-0.3,0.5-0.6,1-0.9,1.6
				c-0.3,0.6-0.6,1.2-0.8,1.8l-31.5,79.8l-0.2,0.5c-0.4,0.2-0.8,0.4-1.2,0.5c-0.4,0.1-0.9,0.3-1.4,0.4c-0.5,0.1-1,0.2-1.6,0.3
				c-0.6,0.1-1.1,0.1-1.7,0.1c-0.9,0-1.7,0-2.5-0.1c-0.8-0.1-1.5-0.2-2.2-0.4c-0.7-0.2-1.4-0.4-2-0.7c-0.6-0.3-1.2-0.6-1.7-1
				c-0.5-0.4-1-0.8-1.5-1.3c-0.5-0.5-1-1-1.5-1.5c-0.5-0.5-1-1.1-1.4-1.8c-0.5-0.6-0.9-1.3-1.4-2L34.5,77.7l63.8,2.7l-7.2,15.2
				l-24.8-0.8L99,146.4l31.2-73.5l18.2,0.9l-2.8,6.9c-0.3,0.1-0.6,0.2-0.8,0.3c-0.3,0.1-0.5,0.2-0.8,0.3c-0.2,0.1-0.5,0.3-0.7,0.4
				C143.1,81.9,142.9,82,142.7,82.2z"/>
		</g>
		<g>
			<linearGradient id="SVGID_29_" gradientUnits="userSpaceOnUse" x1="255.5793" y1="74.2853" x2="-46.8434" y2="245.9303">
				<stop  offset="0" style="stop-color:#FFF000"/>
				<stop  offset="8.405632e-02" style="stop-color:#FFDC01"/>
				<stop  offset="0.2341" style="stop-color:#FFBE03"/>
				<stop  offset="0.3933" style="stop-color:#FFA705"/>
				<stop  offset="0.5637" style="stop-color:#FF9706"/>
				<stop  offset="0.7532" style="stop-color:#FF8D07"/>
				<stop  offset="1" style="stop-color:#FF8A07"/>
			</linearGradient>
			<path class="st28" d="M212.6,95.3c1,1.9,2,3.8,2.9,5.8c0.9,2,1.7,3.9,2.5,6c0.8,2,1.5,4.1,2.1,6.2c0.6,2.1,1.2,4.2,1.7,6.4
				c2.5,11.1,2.8,21.9,1,32c-1.8,10.3-5.8,19.9-11.7,28.3c-6,8.6-14,15.8-23.7,21.2c-9.9,5.5-21.6,8.9-34.6,9.6
				c-13.2,0.7-26.5-1.4-39-6c-12.6-4.6-24.3-11.6-34.4-20.4c-10.1-8.8-18.4-19.3-24.4-30.9c-5.9-11.4-9.5-23.8-10.2-36.5
				c-0.1-0.9-0.1-1.9-0.1-2.8c0-0.9,0-1.9,0-2.8c0-0.9,0-1.8,0.1-2.7c0-0.9,0.1-1.8,0.2-2.7l10.9,17.4c1.6,10.7,5.4,21,11,30.4
				c5.7,9.5,13.2,18.1,21.9,25.3c8.8,7.2,18.8,12.8,29.5,16.5c10.6,3.7,21.8,5.5,33,4.9c11.6-0.6,22-3.5,30.9-8.3
				c8.7-4.7,15.9-11.1,21.4-18.7c5.3-7.4,9-16,10.7-25.2c1.7-9,1.6-18.7-0.6-28.7c-0.2-0.9-0.4-1.7-0.6-2.6
				c-0.2-0.8-0.4-1.7-0.7-2.5c-0.2-0.8-0.5-1.7-0.8-2.5c-0.3-0.8-0.5-1.7-0.8-2.5L212.6,95.3z"/>
		</g>
		<defs>
			<filter id="Adobe_OpacityMaskFilter" filterUnits="userSpaceOnUse" x="34.5" y="39.7" width="189.4" height="171">
				<feColorMatrix  type="matrix" values="1 0 0 0 0  0 1 0 0 0  0 0 1 0 0  0 0 0 1 0"/>
			</filter>
		</defs>
		<mask maskUnits="userSpaceOnUse" x="34.5" y="39.7" width="189.4" height="171" id="SVGID_30_">
			<g class="st29">
				<linearGradient id="SVGID_31_" gradientUnits="userSpaceOnUse" x1="150.7343" y1="151.6559" x2="107.1397" y2="65.1429">
					<stop  offset="0" style="stop-color:#FFFFFF"/>
					<stop  offset="7.380247e-03" style="stop-color:#F6F6F6"/>
					<stop  offset="4.767627e-02" style="stop-color:#C8C8C8"/>
					<stop  offset="9.308982e-02" style="stop-color:#9D9D9D"/>
					<stop  offset="0.1419" style="stop-color:#777777"/>
					<stop  offset="0.195" style="stop-color:#575757"/>
					<stop  offset="0.2537" style="stop-color:#3B3B3B"/>
					<stop  offset="0.32" style="stop-color:#252525"/>
					<stop  offset="0.3974" style="stop-color:#141414"/>
					<stop  offset="0.4931" style="stop-color:#090909"/>
					<stop  offset="0.6274" style="stop-color:#020202"/>
					<stop  offset="1" style="stop-color:#000000"/>
				</linearGradient>
				<path class="st30" d="M79.5,61.4c4.4-3.4,9.3-6.2,14.6-8.5c5.2-2.2,10.8-3.8,16.6-4.7c5.8-0.9,11.9-1.2,18.2-0.8
					c6.3,0.4,12.4,1.5,18.3,3.2c5.9,1.7,11.6,3.9,17,6.7c5.4,2.8,10.5,6,15.3,9.7c4.8,3.7,9.2,7.8,13.3,12.2l9.5,0.5
					c-4.5-5.5-9.5-10.7-15-15.2c-5.5-4.6-11.5-8.6-17.7-12.1c-6.3-3.4-13-6.3-19.9-8.4c-7-2.1-14.2-3.5-21.7-4.1
					c-7.5-0.6-14.8-0.2-21.6,0.9c-7,1.2-13.6,3.2-19.7,6c-6.2,2.8-11.9,6.4-17,10.7C64.2,62,59.7,67.1,56,72.9l11.6,0.5
					C71,68.9,75,64.9,79.5,61.4z M45,105.8c-0.1,0.9-0.1,1.8-0.2,2.7c0,0.9-0.1,1.8-0.1,2.7c0,0.9,0,1.9,0,2.8
					c0,0.9,0.1,1.9,0.1,2.8c0.1,2.6,0.4,5.1,0.8,7.6c3.9,4.6,8.5,8.9,13.7,12.7c-1.5-4.5-2.7-9.2-3.4-13.9L45,105.8z M194,84.5
					l-6.4,41.6l-24.9-35.9c-0.4-0.6-0.8-1.2-1.2-1.7c-0.4-0.5-0.8-1-1.3-1.5c-0.4-0.5-0.9-0.9-1.3-1.3c-0.4-0.4-0.9-0.8-1.3-1.1
					c-0.4-0.3-0.9-0.6-1.4-0.9c-0.5-0.3-1.1-0.5-1.6-0.7c-0.6-0.2-1.2-0.3-1.9-0.4c-0.7-0.1-1.4-0.2-2.1-0.2c-0.7,0-1.4,0-2.1,0
					c-0.6,0.1-1.2,0.1-1.8,0.3c-0.5,0.1-1,0.3-1.5,0.5c-0.4,0.2-0.8,0.5-1.2,0.8c-0.3,0.3-0.7,0.6-1,1c-0.3,0.4-0.6,0.8-0.9,1.2
					c-0.3,0.4-0.6,0.9-0.8,1.4c-0.3,0.5-0.5,1.1-0.7,1.6l-26.1,66.6c1.8,0.1,3.6,0.1,5.4,0.1c5.1,0,10.1-0.3,15-1l18.5-51.5
					l24.7,35.4c13-8.8,22.8-20.6,27.8-34l2.5-19.8L194,84.5z M139.6,86.3c0.3-0.6,0.6-1.1,0.9-1.6c0.3-0.5,0.7-1,1-1.4
					c0.4-0.4,0.7-0.8,1.1-1.1c0.2-0.2,0.4-0.3,0.6-0.5c0.2-0.1,0.4-0.3,0.7-0.4c0.2-0.1,0.5-0.2,0.8-0.3c0.3-0.1,0.5-0.2,0.8-0.3
					l2.8-6.9l-18.2-0.9L99,146.4L66.3,94.8l24.8,0.8l7.2-15.2l-63.8-2.7l44.4,70.4c10.1,4.2,21.4,6.9,33.3,7.7l26.7-67.6
					C139.1,87.5,139.3,86.9,139.6,86.3z"/>
			</g>
		</mask>
		<path class="st31" d="M79.5,61.4c4.4-3.4,9.3-6.2,14.6-8.5c5.2-2.2,10.8-3.8,16.6-4.7c5.8-0.9,11.9-1.2,18.2-0.8
			c6.3,0.4,12.4,1.5,18.3,3.2c5.9,1.7,11.6,3.9,17,6.7c5.4,2.8,10.5,6,15.3,9.7c4.8,3.7,9.2,7.8,13.3,12.2l9.5,0.5
			c-4.5-5.5-9.5-10.7-15-15.2c-5.5-4.6-11.5-8.6-17.7-12.1c-6.3-3.4-13-6.3-19.9-8.4c-7-2.1-14.2-3.5-21.7-4.1
			c-7.5-0.6-14.8-0.2-21.6,0.9c-7,1.2-13.6,3.2-19.7,6c-6.2,2.8-11.9,6.4-17,10.7C64.2,62,59.7,67.1,56,72.9l11.6,0.5
			C71,68.9,75,64.9,79.5,61.4z M187.6,126.1l-24.9-35.9c-0.4-0.6-0.8-1.2-1.2-1.7c-0.4-0.5-0.8-1-1.3-1.5c-0.4-0.5-0.9-0.9-1.3-1.3
			c-0.4-0.4-0.9-0.8-1.3-1.1c-0.4-0.3-0.9-0.6-1.4-0.9c-0.5-0.3-1.1-0.5-1.6-0.7c-0.6-0.2-1.2-0.3-1.9-0.4c-0.7-0.1-1.4-0.2-2.1-0.2
			c-0.7,0-1.4,0-2.1,0c-0.6,0.1-1.2,0.1-1.8,0.3c-0.5,0.1-1,0.3-1.5,0.5c-0.4,0.2-0.8,0.5-1.2,0.8c-0.3,0.3-0.7,0.6-1,1
			c-0.3,0.4-0.6,0.8-0.9,1.2c-0.3,0.4-0.6,0.9-0.8,1.4c-0.3,0.5-0.5,1.1-0.7,1.6l-31.3,79.9l20.7-0.5l23.4-65.3l44.5,63.7l10.6-82.1
			L194,84.5L187.6,126.1z M88.3,162.9c0.5,0.6,0.9,1.2,1.4,1.8c0.5,0.6,1,1.1,1.5,1.5c0.5,0.5,1,0.9,1.5,1.3c0.5,0.4,1.1,0.7,1.7,1
			c0.6,0.3,1.3,0.5,2,0.7c0.7,0.2,1.4,0.3,2.2,0.4c0.8,0.1,1.6,0.1,2.5,0.1c0.6,0,1.2-0.1,1.7-0.1c0.6-0.1,1.1-0.1,1.6-0.3
			c0.5-0.1,1-0.2,1.4-0.4c0.4-0.2,0.9-0.3,1.2-0.5l0.2-0.5l31.5-79.8c0.2-0.6,0.5-1.3,0.8-1.8c0.3-0.6,0.6-1.1,0.9-1.6
			c0.3-0.5,0.7-1,1-1.4c0.4-0.4,0.7-0.8,1.1-1.1c0.2-0.2,0.4-0.3,0.6-0.5c0.2-0.1,0.4-0.3,0.7-0.4c0.2-0.1,0.5-0.2,0.8-0.3
			c0.3-0.1,0.5-0.2,0.8-0.3l2.8-6.9l-18.2-0.9L99,146.4L66.3,94.8l24.8,0.8l7.2-15.2l-63.8-2.7l52.5,83.2
			C87.4,161.6,87.9,162.3,88.3,162.9z M221.8,119.5c-0.5-2.2-1-4.3-1.7-6.4c-0.6-2.1-1.3-4.1-2.1-6.2c-0.8-2-1.6-4-2.5-6
			c-0.9-2-1.9-3.9-2.9-5.8l-1.7,14.1c0.3,0.8,0.6,1.6,0.8,2.5c0.3,0.8,0.5,1.7,0.8,2.5c0.2,0.8,0.5,1.7,0.7,2.5
			c0.2,0.9,0.4,1.7,0.6,2.6c2.2,10,2.3,19.7,0.6,28.7c-1.7,9.2-5.4,17.8-10.7,25.2c-5.5,7.6-12.7,14-21.4,18.7
			c-8.9,4.8-19.3,7.7-30.9,8.3c-11.2,0.5-22.4-1.2-33-4.9c-10.7-3.7-20.7-9.4-29.5-16.5c-8.8-7.2-16.2-15.7-21.9-25.3
			c-5.6-9.4-9.4-19.7-11-30.4L45,105.8c-0.1,0.9-0.1,1.8-0.2,2.7c0,0.9-0.1,1.8-0.1,2.7c0,0.9,0,1.9,0,2.8c0,0.9,0.1,1.9,0.1,2.8
			c0.7,12.7,4.3,25.1,10.2,36.5c6,11.6,14.4,22.1,24.4,30.9c10.1,8.8,21.8,15.8,34.4,20.4c12.5,4.6,25.7,6.7,39,6
			c13-0.7,24.6-4.1,34.6-9.6c9.7-5.3,17.7-12.6,23.7-21.2c5.9-8.3,9.8-18,11.7-28.3C224.6,141.4,224.3,130.6,221.8,119.5z"/>
		
			<radialGradient id="SVGID_32_" cx="219.141" cy="39.2115" r="72.5048" gradientTransform="matrix(0.8324 0 0 0.8324 7.128 70.435)" gradientUnits="userSpaceOnUse">
			<stop  offset="5.494510e-03" style="stop-color:#FFFFFF"/>
			<stop  offset="0.1648" style="stop-color:#04BFFF"/>
			<stop  offset="0.204" style="stop-color:#04AEEC"/>
			<stop  offset="0.3201" style="stop-color:#0481B8"/>
			<stop  offset="0.4342" style="stop-color:#045C8C"/>
			<stop  offset="0.5438" style="stop-color:#043F6B"/>
			<stop  offset="0.6477" style="stop-color:#042A53"/>
			<stop  offset="0.7437" style="stop-color:#041D44"/>
			<stop  offset="0.8242" style="stop-color:#04193F"/>
		</radialGradient>
		<polygon class="st32" points="187.6,125.9 193.9,84.5 193.3,85.3 187.1,125.3 		"/>
	</g>
</g>
</svg>
